<svg xmlns="http://www.w3.org/2000/svg" data-name="Layer 1" viewBox="0 0 100 100" x="0px" y="0px"><path d="M42.781,27.5H20V16.25h3.75v1.875A1.876,1.876,0,0,0,25.625,20H31.25a1.876,1.876,0,0,0,1.875-1.875V16.25H35v1.875A1.876,1.876,0,0,0,36.875,20H42.5a1.876,1.876,0,0,0,1.875-1.875V16.25h3.75v1.631a1.875,1.875,0,0,0,3.75,0V14.375A1.876,1.876,0,0,0,50,12.5H42.5a1.876,1.876,0,0,0-1.875,1.875V16.25H38.75V14.375A1.876,1.876,0,0,0,36.875,12.5H31.25a1.876,1.876,0,0,0-1.875,1.875V16.25H27.5V14.375A1.876,1.876,0,0,0,25.625,12.5h-7.5a1.876,1.876,0,0,0-1.875,1.875V27.5a1.876,1.876,0,0,0-1.875,1.875,9.4,9.4,0,0,0,2.752,6.641,9.513,9.513,0,0,0,2.75,1.868L16.447,68.75H14.375A1.876,1.876,0,0,0,12.5,70.625a9.334,9.334,0,0,0,2.2,5.968A3.748,3.748,0,0,0,12.5,80v3.75a3.754,3.754,0,0,0,3.75,3.75H38.938a1.875,1.875,0,0,0,0-3.75H16.25V80H38.956a1.875,1.875,0,0,0,0-3.75H21.875A5.649,5.649,0,0,1,17.9,74.615,5.76,5.76,0,0,1,16.572,72.5H38.75a1.875,1.875,0,0,0,0-3.75H20.219l3.336-30.019c.066,0,.129.019.2.019H40.212a1.875,1.875,0,0,0,0-3.75H23.75a5.649,5.649,0,0,1-3.972-1.635,5.76,5.76,0,0,1-1.331-2.115H42.781a1.875,1.875,0,1,0,0-3.75Z" fill="#fff"/><path d="M77.318,38.75h4.557A5.631,5.631,0,0,0,87.5,33.125V29.817a5.6,5.6,0,0,0-3.109-5.031L69.1,17.143a1.872,1.872,0,0,1-.941-1.084l-.877-2.633a2.812,2.812,0,0,0-4.749-1L55.165,20.53a41.5,41.5,0,0,0-8.149,42.48l2.153,5.74H46.25a1.876,1.876,0,0,0-1.875,1.875,7.655,7.655,0,0,0,2.532,5.845A3.743,3.743,0,0,0,44.375,80v3.75a3.754,3.754,0,0,0,3.75,3.75H83.75a3.754,3.754,0,0,0,3.75-3.75V80a3.743,3.743,0,0,0-2.532-3.53A7.655,7.655,0,0,0,87.5,70.625a1.876,1.876,0,0,0-1.875-1.875H83.75V63.567a5.6,5.6,0,0,0-3.109-5.031,17.256,17.256,0,0,1-9.428-13.324l-.343-2.739A8.6,8.6,0,0,0,77.318,38.75ZM83.429,72.5a5.635,5.635,0,0,1-5.3,3.75H53.75a5.635,5.635,0,0,1-5.3-3.75Zm.321,11.25H48.125V80H83.75ZM74.573,36.036a4.882,4.882,0,0,1-4.39,2.714H68.75a1.875,1.875,0,0,0-1.86,2.108l.6,4.819A21,21,0,0,0,78.964,61.891,1.863,1.863,0,0,1,80,63.567V68.75H53.175l-2.647-7.057a37.744,37.744,0,0,1,7.411-38.64l6.295-6.922.37,1.113A5.6,5.6,0,0,0,67.426,20.5l15.288,7.644a1.863,1.863,0,0,1,1.036,1.676v3.308A1.877,1.877,0,0,1,81.875,35H76.25A1.874,1.874,0,0,0,74.573,36.036Z" fill="#fff"/><circle cx="67.813" cy="27.5" r="1.875" fill="#fff"/></svg>